
          <svg xmlns="http://www.w3.org/2000/svg" xmlns:cc="http://creativecommons.org/ns#" xmlns:rdf="http://www.w3.org/1999/02/22-rdf-syntax-ns#" version="1.1" width="542.0859375" height="478.3955078125">
            <defs>
              <style type="text/css">svg {
          background-color: #fff; }
        
        .root text,
        .root tspan {
          font: 12px Arial; }
        
        .root path {
          fill-opacity: 0;
          stroke-width: 2px;
          stroke: #000; }
        
        .root circle {
          fill: #6b6659;
          stroke-width: 2px;
          stroke: #000; }
        
        .anchor text, .any-character text {
          fill: #fff; }
        
        .anchor rect, .any-character rect {
          fill: #6b6659; }
        
        .escape text, .charset-escape text, .literal text {
          fill: #000; }
        
        .escape rect, .charset-escape rect {
          fill: #bada55; }
        
        .literal rect {
          fill: #dae9e5; }
        
        .charset .charset-box {
          fill: #cbcbba; }
        
        .subexp .subexp-label tspan,
        .charset .charset-label tspan,
        .match-fragment .repeat-label tspan {
          font-size: 10px; }
        
        .repeat-label {
          cursor: help; }
        
        .subexp .subexp-label tspan,
        .charset .charset-label tspan {
          dominant-baseline: text-after-edge; }
        
        .subexp .subexp-box {
          stroke: #908c83;
          stroke-dasharray: 6,2;
          stroke-width: 2px;
          fill-opacity: 0; }
        
        .quote {
          fill: #908c83; }
        </style>
            </defs>
            <metadata>
              <rdf:rdf>
                <cc:license rdf:about="http://creativecommons.org/licenses/by/3.0/">
                  <cc:permits rdf:resource="http://creativecommons.org/ns#Reproduction"></cc:permits>
                  <cc:permits rdf:resource="http://creativecommons.org/ns#Distribution"></cc:permits>
                  <cc:requires rdf:resource="http://creativecommons.org/ns#Notice"></cc:requires>
                  <cc:requires rdf:resource="http://creativecommons.org/ns#Attribution"></cc:requires>
                  <cc:permits rdf:resource="http://creativecommons.org/ns#DerivativeWorks"></cc:permits>
                </cc:license>
              </rdf:rdf>
            </metadata>
          <desc>Created with Snap</desc><g class="root" transform="matrix(1,0,0,1,15,9.8955)"><g class="regexp match" transform="matrix(1,0,0,1,10,0)"><path d="M89.6796875,234.9068H134.6797M378.0390902587891,234.90675372314453H398.0391"></path><g class="match-fragment" transform="matrix(1,0,0,1,0,63.8023)"><path d="M0,171.1045q10,0 10,-10v-151.00000018310547q0,-10 10,-10h74.6796875q10,0 10,10v151.00000018310547q0,10 10,10M15,171.1045q-10,0 -10,10v139.99999981689453q0,10 10,10h84.6796875q10,0 10,-10v-139.99999981689453q0,-10 -10,-10M109.6796875,186.1045l5,-5m-5,5l-5,-5"></path><g class="subexp" transform="matrix(1,0,0,1,15,10)"><rect rx="3" ry="3" class="subexp-box" transform="matrix(1,0,0,1,0,11.1045)" width="84.6796875" height="300"></rect><text x="0" y="0" class="subexp-label" transform="matrix(1,0,0,1,0,11.1045)"><tspan>group #1</tspan></text><g class="regexp" transform="matrix(1,0,0,1,10,21.1045)"><path d="M10,21.75q0,-10 10,-10M54.6796875,21.75q0,-10 -10,-10M10,50.25q0,-10 10,-10M54.6796875,50.25q0,-10 -10,-10M10,78.75q0,-10 10,-10M54.6796875,78.75q0,-10 -10,-10M10,107.25q0,-10 10,-10M54.6796875,107.25q0,-10 -10,-10M0,140c10,0 10,-14.25 20,-14.25M64.6796875,140c-10,0 -10,-14.25 -20,-14.25M0,140c10,0 10,14.25 20,14.25M64.6796875,140c-10,0 -10,14.25 -20,14.25M10,172.75q0,10 10,10M54.6796875,172.75q0,10 -10,10M10,201.25q0,10 10,10M54.6796875,201.25q0,10 -10,10M10,229.75q0,10 10,10M54.6796875,229.75q0,10 -10,10M10,258.25q0,10 10,10M54.6796875,258.25q0,10 -10,10M0,140q10,0 10,-10V21.75M64.6796875,140q-10,0 -10,-10V21.75M0,140q10,0 10,10V258.25M64.6796875,140q-10,0 -10,10V258.25"></path><g transform="matrix(1,0,0,1,20,0)" class="regexp-matches"><path d="M0,11.75h0M24.6796875,11.75H24.6796875M0,40.25h0M24.6796875,40.25H24.6796875M0,68.75h0M24.6796875,68.75H24.6796875M0,97.25h0M24.6796875,97.25H24.6796875M0,125.75h0M24.6796875,125.75H24.6796875M0,154.25h0M24.6796875,154.25H24.6796875M0,182.75h0M24.6796875,182.75H24.6796875M0,211.25h0M24.6796875,211.25H24.6796875M0,239.75h0M24.6796875,239.75H24.6796875M0,268.25h0M24.6796875,268.25H24.6796875"></path><g class="match match-fragment literal" transform="matrix(1,0,0,1,0,0)"><g class="label"><rect width="24.6796875" height="23.5" rx="3" ry="3"></rect><text x="0" y="0" transform="matrix(1,0,0,1,5,16.75)"><tspan class="quote">“</tspan><tspan>0</tspan><tspan class="quote">”</tspan></text></g></g><g class="match match-fragment literal" transform="matrix(1,0,0,1,0,28.5)"><g class="label"><rect width="24.6796875" height="23.5" rx="3" ry="3"></rect><text x="0" y="0" transform="matrix(1,0,0,1,5,16.75)"><tspan class="quote">“</tspan><tspan>1</tspan><tspan class="quote">”</tspan></text></g></g><g class="match match-fragment literal" transform="matrix(1,0,0,1,0,57)"><g class="label"><rect width="24.6796875" height="23.5" rx="3" ry="3"></rect><text x="0" y="0" transform="matrix(1,0,0,1,5,16.75)"><tspan class="quote">“</tspan><tspan>2</tspan><tspan class="quote">”</tspan></text></g></g><g class="match match-fragment literal" transform="matrix(1,0,0,1,0,85.5)"><g class="label"><rect width="24.6796875" height="23.5" rx="3" ry="3"></rect><text x="0" y="0" transform="matrix(1,0,0,1,5,16.75)"><tspan class="quote">“</tspan><tspan>3</tspan><tspan class="quote">”</tspan></text></g></g><g class="match match-fragment literal" transform="matrix(1,0,0,1,0,114)"><g class="label"><rect width="24.6796875" height="23.5" rx="3" ry="3"></rect><text x="0" y="0" transform="matrix(1,0,0,1,5,16.75)"><tspan class="quote">“</tspan><tspan>4</tspan><tspan class="quote">”</tspan></text></g></g><g class="match match-fragment literal" transform="matrix(1,0,0,1,0,142.5)"><g class="label"><rect width="24.6796875" height="23.5" rx="3" ry="3"></rect><text x="0" y="0" transform="matrix(1,0,0,1,5,16.75)"><tspan class="quote">“</tspan><tspan>5</tspan><tspan class="quote">”</tspan></text></g></g><g class="match match-fragment literal" transform="matrix(1,0,0,1,0,171)"><g class="label"><rect width="24.6796875" height="23.5" rx="3" ry="3"></rect><text x="0" y="0" transform="matrix(1,0,0,1,5,16.75)"><tspan class="quote">“</tspan><tspan>6</tspan><tspan class="quote">”</tspan></text></g></g><g class="match match-fragment literal" transform="matrix(1,0,0,1,0,199.5)"><g class="label"><rect width="24.6796875" height="23.5" rx="3" ry="3"></rect><text x="0" y="0" transform="matrix(1,0,0,1,5,16.75)"><tspan class="quote">“</tspan><tspan>7</tspan><tspan class="quote">”</tspan></text></g></g><g class="match match-fragment literal" transform="matrix(1,0,0,1,0,228)"><g class="label"><rect width="24.6796875" height="23.5" rx="3" ry="3"></rect><text x="0" y="0" transform="matrix(1,0,0,1,5,16.75)"><tspan class="quote">“</tspan><tspan>8</tspan><tspan class="quote">”</tspan></text></g></g><g class="match match-fragment literal" transform="matrix(1,0,0,1,0,256.5)"><g class="label"><rect width="24.6796875" height="23.5" rx="3" ry="3"></rect><text x="0" y="0" transform="matrix(1,0,0,1,5,16.75)"><tspan class="quote">“</tspan><tspan>9</tspan><tspan class="quote">”</tspan></text></g></g></g></g></g></g><g class="match-fragment subexp" transform="matrix(1,0,0,1,124.6797,0)"><rect rx="3" ry="3" class="subexp-box" transform="matrix(1,0,0,1,0,11.1045)" width="263.35939025878906" height="447.3955078125"></rect><text x="0" y="0" class="subexp-label" transform="matrix(1,0,0,1,0,11.1045)"><tspan>group #2</tspan></text><g class="regexp" transform="matrix(1,0,0,1,10,21.1045)"><path d="M10,99.8545q0,-10 10,-10M233.35939025878906,99.8545q0,-10 -10,-10M10,253.35450000000003q0,10 10,10M233.35939025878906,253.35450000000003q0,10 -10,10M10,348.75q0,10 10,10M233.35939025878906,348.75q0,10 -10,10M10,377.25q0,10 10,10M233.35939025878906,377.25q0,10 -10,10M10,405.75q0,10 10,10M233.35939025878906,405.75q0,10 -10,10M0,213.80225372314453q10,0 10,-10V99.8545M243.35939025878906,213.80225372314453q-10,0 -10,-10V99.8545M0,213.80225372314453q10,0 10,10V405.75M243.35939025878906,213.80225372314453q-10,0 -10,10V405.75"></path><g transform="matrix(1,0,0,1,20,0)" class="regexp-matches"><path d="M0,89.8545h10M193.3593875,89.8545H203.35939025878906M0,263.35450000000003h10M193.3593875,263.35450000000003H203.35939025878906M0,358.75h77.3399M126.0195875,358.75H203.35939025878906M0,387.25h79.332M124.0273125,387.25H203.35939025878906M0,415.75h79.332M124.0273125,415.75H203.35939025878906"></path><g class="match" transform="matrix(1,0,0,1,0,0)"><path d="M74.6796875,89.8545H104.6797"></path><g class="match-fragment subexp" transform="matrix(1,0,0,1,0,0)"><rect rx="3" ry="3" class="subexp-box" transform="matrix(1,0,0,1,0,11.1045)" width="84.6796875" height="157.5"></rect><text x="0" y="0" class="subexp-label" transform="matrix(1,0,0,1,0,11.1045)"><tspan>group #3</tspan></text><g class="regexp" transform="matrix(1,0,0,1,10,21.1045)"><path d="M10,21.75q0,-10 10,-10M54.6796875,21.75q0,-10 -10,-10M10,50.25q0,-10 10,-10M54.6796875,50.25q0,-10 -10,-10M0,68.75c10,0 10,0 20,0M64.6796875,68.75c-10,0 -10,0 -20,0M10,87.25q0,10 10,10M54.6796875,87.25q0,10 -10,10M10,115.75q0,10 10,10M54.6796875,115.75q0,10 -10,10M0,68.75q10,0 10,-10V21.75M64.6796875,68.75q-10,0 -10,-10V21.75M0,68.75q10,0 10,10V115.75M64.6796875,68.75q-10,0 -10,10V115.75"></path><g transform="matrix(1,0,0,1,20,0)" class="regexp-matches"><path d="M0,11.75h0M24.6796875,11.75H24.6796875M0,40.25h0M24.6796875,40.25H24.6796875M0,68.75h0M24.6796875,68.75H24.6796875M0,97.25h0M24.6796875,97.25H24.6796875M0,125.75h0M24.6796875,125.75H24.6796875"></path><g class="match match-fragment literal" transform="matrix(1,0,0,1,0,0)"><g class="label"><rect width="24.6796875" height="23.5" rx="3" ry="3"></rect><text x="0" y="0" transform="matrix(1,0,0,1,5,16.75)"><tspan class="quote">“</tspan><tspan>0</tspan><tspan class="quote">”</tspan></text></g></g><g class="match match-fragment literal" transform="matrix(1,0,0,1,0,28.5)"><g class="label"><rect width="24.6796875" height="23.5" rx="3" ry="3"></rect><text x="0" y="0" transform="matrix(1,0,0,1,5,16.75)"><tspan class="quote">“</tspan><tspan>2</tspan><tspan class="quote">”</tspan></text></g></g><g class="match match-fragment literal" transform="matrix(1,0,0,1,0,57)"><g class="label"><rect width="24.6796875" height="23.5" rx="3" ry="3"></rect><text x="0" y="0" transform="matrix(1,0,0,1,5,16.75)"><tspan class="quote">“</tspan><tspan>4</tspan><tspan class="quote">”</tspan></text></g></g><g class="match match-fragment literal" transform="matrix(1,0,0,1,0,85.5)"><g class="label"><rect width="24.6796875" height="23.5" rx="3" ry="3"></rect><text x="0" y="0" transform="matrix(1,0,0,1,5,16.75)"><tspan class="quote">“</tspan><tspan>6</tspan><tspan class="quote">”</tspan></text></g></g><g class="match match-fragment literal" transform="matrix(1,0,0,1,0,114)"><g class="label"><rect width="24.6796875" height="23.5" rx="3" ry="3"></rect><text x="0" y="0" transform="matrix(1,0,0,1,5,16.75)"><tspan class="quote">“</tspan><tspan>8</tspan><tspan class="quote">”</tspan></text></g></g></g></g></g><g class="match-fragment subexp" transform="matrix(1,0,0,1,94.6797,28.5)"><rect rx="3" ry="3" class="subexp-box" transform="matrix(1,0,0,1,0,11.1045)" width="108.6796875" height="100.5"></rect><text x="0" y="0" class="subexp-label" transform="matrix(1,0,0,1,0,11.1045)"><tspan>group #4</tspan></text><g class="regexp" transform="matrix(1,0,0,1,10,21.1045)"><path d="M10,21.75q0,-10 10,-10M78.6796875,21.75q0,-10 -10,-10M0,40.25c10,0 10,0 20,0M88.6796875,40.25c-10,0 -10,0 -20,0M10,58.75q0,10 10,10M78.6796875,58.75q0,10 -10,10M0,40.25q10,0 10,-10V21.75M88.6796875,40.25q-10,0 -10,-10V21.75M0,40.25q10,0 10,10V58.75M88.6796875,40.25q-10,0 -10,10V58.75"></path><g transform="matrix(1,0,0,1,20,0)" class="regexp-matches"><path d="M0,11.75h0M48.6796875,11.75H48.6796875M0,40.25h5.3281M43.3515375,40.25H48.6796875M0,68.75h5.3281M43.3515375,68.75H48.6796875"></path><g class="match match-fragment literal" transform="matrix(1,0,0,1,0,0)"><g class="label"><rect width="48.6796875" height="23.5" rx="3" ry="3"></rect><text x="0" y="0" transform="matrix(1,0,0,1,5,16.75)"><tspan class="quote">“</tspan><tspan>条件1</tspan><tspan class="quote">”</tspan></text></g></g><g class="match match-fragment literal" transform="matrix(1,0,0,1,5.3281,28.5)"><g class="label"><rect width="38.0234375" height="23.5" rx="3" ry="3"></rect><text x="0" y="0" transform="matrix(1,0,0,1,5,16.75)"><tspan class="quote">“</tspan><tspan>456</tspan><tspan class="quote">”</tspan></text></g></g><g class="match match-fragment literal" transform="matrix(1,0,0,1,5.3281,57)"><g class="label"><rect width="38.0234375" height="23.5" rx="3" ry="3"></rect><text x="0" y="0" transform="matrix(1,0,0,1,5,16.75)"><tspan class="quote">“</tspan><tspan>789</tspan><tspan class="quote">”</tspan></text></g></g></g></g></g></g><g class="match" transform="matrix(1,0,0,1,0,173.5)"><path d="M74.6796875,89.8545H104.6797"></path><g class="match-fragment subexp" transform="matrix(1,0,0,1,0,0)"><rect rx="3" ry="3" class="subexp-box" transform="matrix(1,0,0,1,0,11.1045)" width="84.6796875" height="157.5"></rect><text x="0" y="0" class="subexp-label" transform="matrix(1,0,0,1,0,11.1045)"><tspan>group #5</tspan></text><g class="regexp" transform="matrix(1,0,0,1,10,21.1045)"><path d="M10,21.75q0,-10 10,-10M54.6796875,21.75q0,-10 -10,-10M10,50.25q0,-10 10,-10M54.6796875,50.25q0,-10 -10,-10M0,68.75c10,0 10,0 20,0M64.6796875,68.75c-10,0 -10,0 -20,0M10,87.25q0,10 10,10M54.6796875,87.25q0,10 -10,10M10,115.75q0,10 10,10M54.6796875,115.75q0,10 -10,10M0,68.75q10,0 10,-10V21.75M64.6796875,68.75q-10,0 -10,-10V21.75M0,68.75q10,0 10,10V115.75M64.6796875,68.75q-10,0 -10,10V115.75"></path><g transform="matrix(1,0,0,1,20,0)" class="regexp-matches"><path d="M0,11.75h0M24.6796875,11.75H24.6796875M0,40.25h0M24.6796875,40.25H24.6796875M0,68.75h0M24.6796875,68.75H24.6796875M0,97.25h0M24.6796875,97.25H24.6796875M0,125.75h0M24.6796875,125.75H24.6796875"></path><g class="match match-fragment literal" transform="matrix(1,0,0,1,0,0)"><g class="label"><rect width="24.6796875" height="23.5" rx="3" ry="3"></rect><text x="0" y="0" transform="matrix(1,0,0,1,5,16.75)"><tspan class="quote">“</tspan><tspan>1</tspan><tspan class="quote">”</tspan></text></g></g><g class="match match-fragment literal" transform="matrix(1,0,0,1,0,28.5)"><g class="label"><rect width="24.6796875" height="23.5" rx="3" ry="3"></rect><text x="0" y="0" transform="matrix(1,0,0,1,5,16.75)"><tspan class="quote">“</tspan><tspan>3</tspan><tspan class="quote">”</tspan></text></g></g><g class="match match-fragment literal" transform="matrix(1,0,0,1,0,57)"><g class="label"><rect width="24.6796875" height="23.5" rx="3" ry="3"></rect><text x="0" y="0" transform="matrix(1,0,0,1,5,16.75)"><tspan class="quote">“</tspan><tspan>5</tspan><tspan class="quote">”</tspan></text></g></g><g class="match match-fragment literal" transform="matrix(1,0,0,1,0,85.5)"><g class="label"><rect width="24.6796875" height="23.5" rx="3" ry="3"></rect><text x="0" y="0" transform="matrix(1,0,0,1,5,16.75)"><tspan class="quote">“</tspan><tspan>7</tspan><tspan class="quote">”</tspan></text></g></g><g class="match match-fragment literal" transform="matrix(1,0,0,1,0,114)"><g class="label"><rect width="24.6796875" height="23.5" rx="3" ry="3"></rect><text x="0" y="0" transform="matrix(1,0,0,1,5,16.75)"><tspan class="quote">“</tspan><tspan>9</tspan><tspan class="quote">”</tspan></text></g></g></g></g></g><g class="match-fragment subexp" transform="matrix(1,0,0,1,94.6797,28.5)"><rect rx="3" ry="3" class="subexp-box" transform="matrix(1,0,0,1,0,11.1045)" width="108.6796875" height="100.5"></rect><text x="0" y="0" class="subexp-label" transform="matrix(1,0,0,1,0,11.1045)"><tspan>group #6</tspan></text><g class="regexp" transform="matrix(1,0,0,1,10,21.1045)"><path d="M10,21.75q0,-10 10,-10M78.6796875,21.75q0,-10 -10,-10M0,40.25c10,0 10,0 20,0M88.6796875,40.25c-10,0 -10,0 -20,0M10,58.75q0,10 10,10M78.6796875,58.75q0,10 -10,10M0,40.25q10,0 10,-10V21.75M88.6796875,40.25q-10,0 -10,-10V21.75M0,40.25q10,0 10,10V58.75M88.6796875,40.25q-10,0 -10,10V58.75"></path><g transform="matrix(1,0,0,1,20,0)" class="regexp-matches"><path d="M0,11.75h0M48.6796875,11.75H48.6796875M0,40.25h5.3281M43.3515375,40.25H48.6796875M0,68.75h5.3281M43.3515375,68.75H48.6796875"></path><g class="match match-fragment literal" transform="matrix(1,0,0,1,0,0)"><g class="label"><rect width="48.6796875" height="23.5" rx="3" ry="3"></rect><text x="0" y="0" transform="matrix(1,0,0,1,5,16.75)"><tspan class="quote">“</tspan><tspan>条件2</tspan><tspan class="quote">”</tspan></text></g></g><g class="match match-fragment literal" transform="matrix(1,0,0,1,5.3281,28.5)"><g class="label"><rect width="38.0234375" height="23.5" rx="3" ry="3"></rect><text x="0" y="0" transform="matrix(1,0,0,1,5,16.75)"><tspan class="quote">“</tspan><tspan>514</tspan><tspan class="quote">”</tspan></text></g></g><g class="match match-fragment literal" transform="matrix(1,0,0,1,5.3281,57)"><g class="label"><rect width="38.0234375" height="23.5" rx="3" ry="3"></rect><text x="0" y="0" transform="matrix(1,0,0,1,5,16.75)"><tspan class="quote">“</tspan><tspan>810</tspan><tspan class="quote">”</tspan></text></g></g></g></g></g></g><g class="match match-fragment literal" transform="matrix(1,0,0,1,77.3399,347)"><g class="label"><rect width="48.6796875" height="23.5" rx="3" ry="3"></rect><text x="0" y="0" transform="matrix(1,0,0,1,5,16.75)"><tspan class="quote">“</tspan><tspan>条件4</tspan><tspan class="quote">”</tspan></text></g></g><g class="match match-fragment literal" transform="matrix(1,0,0,1,79.332,375.5)"><g class="label"><rect width="44.6953125" height="23.5" rx="3" ry="3"></rect><text x="0" y="0" transform="matrix(1,0,0,1,5,16.75)"><tspan class="quote">“</tspan><tspan>3543</tspan><tspan class="quote">”</tspan></text></g></g><g class="match match-fragment literal" transform="matrix(1,0,0,1,79.332,404)"><g class="label"><rect width="44.6953125" height="23.5" rx="3" ry="3"></rect><text x="0" y="0" transform="matrix(1,0,0,1,5,16.75)"><tspan class="quote">“</tspan><tspan>2746</tspan><tspan class="quote">”</tspan></text></g></g></g></g></g><g class="match-fragment escape" transform="matrix(1,0,0,1,398.0391,223.1441)"><g class="label"><rect width="94.046875" height="23.525390625" rx="3" ry="3"></rect><text x="0" y="0" transform="matrix(1,0,0,1,5,16.7627)"><tspan>line feed (0x0A)</tspan></text></g></g></g><path d="M35,234.9068H0M502.085975,234.9068H512.0859680175781"></path><circle cx="0" cy="234.9068" r="5"></circle><circle cx="512.0859680175781" cy="234.9068" r="5"></circle></g></svg>
        